#!OML:ASF F:\VICON\USERDATA\Patient Classification 1\PLAYGROUND\JustinFriday\JustinFriday.ASF
:FULLY-SPECIFIED
:DEGREES
1630
root -5.38276 17.714 40.0463 351.275 29.3233 -7.0528
lowerback 11.4951 0.693526 3.44992
upperback 4.43823 1.50378 4.7359
thorax -1.84506 0.779275 2.79216
lowerneck -7.70809 0.859218 -2.78509
upperneck 24.3056 2.04368 -0.642349
head 8.83228 0.726725 0.468386
rclavicle -3.61788e-014 2.3059e-014
rhumerus -31.1447 -25.1308 -69.7662
rradius 17.2238
rwrist 1.30796
rhand -16.4642 -23.5212
rfingers 7.12502
rthumb 9.75236 -53.2754
lclavicle -3.61788e-014 2.3059e-014
lhumerus -31.8557 -5.85355 86.7704
lradius 35.0064
lwrist -2.20356
lhand -8.54865 -5.78971
lfingers 7.12502
lthumb 17.3809 23.4532
rfemur -10.0191 -2.39909 29.8983
rtibia 21.7816
rfoot -3.10847 0.0521344
rtoes 11.8693
lfemur -8.81549 3.88611 -9.96629
ltibia 68.9738
lfoot 9.01888 -10.5119
ltoes 6.78519
1631
root -5.31327 17.7462 40.1646 351.123 29.1495 -7.45021
lowerback 11.5503 1.02279 4.25559
upperback 4.17998 2.0373 4.54445
thorax -2.12161 1.0454 2.06621
lowerneck -6.81934 0.526242 -3.07752
upperneck 24.2816 1.4105 0.184659
head 8.65442 0.495305 0.731686
rclavicle -9.651e-014 1.90833e-014
rhumerus -31.3601 -25.6206 -69.6673
rradius 17.4687
rwrist 1.52872
rhand -17.4573 -23.4985
rfingers 7.12502
rthumb 8.79402 -53.2953
lclavicle -9.651e-014 1.90833e-014
lhumerus -32.4095 -6.49504 86.8951
lradius 34.2652
lwrist -2.67974
lhand -8.11613 -6.0811
lfingers 7.12502
lthumb 17.7971 23.1245
rfemur -9.47279 -2.45044 30.2938
rtibia 21.6582
rfoot -3.75454 0.00234263
rtoes 17.498
lfemur -10.1709 4.31386 -9.44179
ltibia 69.8848
lfoot 7.64317 -10.3483
ltoes 6.80775
1632
root -5.2468 17.7814 40.2894 351.188 29.0527 -7.29332
lowerback 11.3942 1.08081 3.87766
upperback 4.47688 2.05287 4.71432
thorax -1.74657 1.05747 2.46075
lowerneck -7.67291 0.771028 -3.2694
upperneck 24.6255 1.87449 -0.0297131
head 8.92669 0.666017 0.744684
rclavicle 1.38354e-013 -5.88403e-014
rhumerus -29.8357 -25.1828 -70.0038
rradius 17.4499
rwrist 1.73835
rhand -17.5944 -23.3683
rfingers 7.12502
rthumb 8.66178 -53.1706
lclavicle 1.38354e-013 -5.88403e-014
lhumerus -32.2184 -5.3028 87.0604
lradius 33.8639
lwrist -3.37142
lhand -7.50433 -6.50056
lfingers 7.12502
lthumb 18.3857 22.6506
rfemur -8.68481 -2.45128 30.1597
rtibia 21.1778
rfoot -4.09849 0.106536
rtoes 19.3569
lfemur -11.4333 4.6862 -9.51658
ltibia 70.7054
lfoot 6.38121 -9.9805
ltoes 6.56718
1633
root -5.16449 17.8232 40.4224 351.723 28.9378 -5.35359
lowerback 11.4748 1.37909 2.13855
upperback 4.80764 2.23683 4.32133
thorax -1.50167 1.13741 3.0068
lowerneck -7.58233 0.804038 -3.53962
upperneck 24.3226 1.92992 0.0682056
head 8.80078 0.681465 0.82563
rclavicle 6.10269e-014 -3.26007e-014
rhumerus -28.8047 -25.128 -70.2248
rradius 17.5028
rwrist 1.70377
rhand -17.657 -23.1699
rfingers 7.12502
rthumb 8.60132 -52.9747
lclavicle 6.10269e-014 -3.26007e-014
lhumerus -32.2672 -4.5664 87.1472
lradius 33.396
lwrist -3.70009
lhand -7.21881 -7.30724
lfingers 7.12502
lthumb 18.6604 21.8177
rfemur -7.45124 -2.48867 28.216
rtibia 20.8451
rfoot -4.40397 0.609589
rtoes 20.1961
lfemur -11.7853 4.95967 -11.5947
ltibia 71.0084
lfoot 5.08599 -8.90823
ltoes 5.9304
1634
root -5.10748 17.8215 40.5128 350.717 28.9776 -7.83877
lowerback 11.5904 1.24226 4.4737
upperback 4.66895 2.34233 4.8571
thorax -1.63787 1.21024 2.23856
lowerneck -7.3737 0.772175 -3.67984
upperneck 24.1157 1.87448 0.161557
head 8.68949 0.656889 0.872164
rclavicle -3.08116e-014 3.57812e-014
rhumerus -28.0756 -24.7013 -70.5063
rradius 17.587
rwrist 1.11202
rhand -18.4719 -22.8002
rfingers 7.12502
rthumb 7.81488 -52.6357
lclavicle -3.08116e-014 3.57812e-014
lhumerus -32.5115 -4.36607 87.271
lradius 32.8773
lwrist -3.68574
lhand -7.16699 -7.84583
lfingers 7.12502
lthumb 18.7102 21.2744
rfemur -7.25375 -2.58337 30.5887
rtibia 20.675
rfoot -4.48819 0.414984
rtoes 20.8397
lfemur -13.7905 5.23841 -8.95366
ltibia 71.8123
lfoot 4.48063 -9.15753
ltoes 6.5593
1635
root -5.0327 17.8336 40.6294 350.655 28.9345 -7.76647
lowerback 11.6454 1.32013 4.51366
upperback 4.70349 2.44835 4.75934
thorax -1.62657 1.26422 2.0997
lowerneck -7.51619 0.85036 -3.56456
upperneck 24.3532 1.97941 0.165367
head 8.79631 0.714175 0.867485
rclavicle -7.11649e-014 -2.38542e-014
rhumerus -27.2989 -23.6795 -71.155
rradius 17.7143
rwrist 0.395519
rhand -19.2473 -22.2761
rfingers 7.12502
rthumb 7.06643 -52.1382
lclavicle -7.11649e-014 -2.38542e-014
lhumerus -32.8665 -4.20261 87.2433
lradius 32.5911
lwrist -3.64946
lhand -7.04152 -7.42143
lfingers 7.12502
lthumb 18.8309 21.6871
rfemur -6.59346 -2.69021 30.4625
rtibia 20.6327
rfoot -4.68483 0.715801
rtoes 20.0983
lfemur -14.801 5.51185 -9.05585
ltibia 72.0316
lfoot 3.69551 -9.02449
ltoes 9.04378
1636
root -4.96936 17.8423 40.7499 350.794 29.0944 -7.32222
lowerback 11.8235 1.43 3.99988
upperback 4.61465 2.55025 4.62986
thorax -1.83494 1.30743 2.23194
lowerneck -7.29949 0.883712 -3.5863
upperneck 24.3671 1.99615 0.287174
head 8.75821 0.734716 0.912354
rclavicle -2.38542e-014 3.97569e-014
rhumerus -26.8398 -22.9722 -71.5721
rradius 18.129
rwrist -0.256562
rhand -19.7052 -22.2971
rfingers 7.12502
rthumb 6.62439 -52.1735
lclavicle -2.38542e-014 3.97569e-014
lhumerus -33.5668 -4.00295 87.25
lradius 32.5064
lwrist -3.70825
lhand -6.87434 -6.77813
lfingers 7.12502
lthumb 18.9917 22.3147
rfemur -5.89062 -2.63278 30.0133
rtibia 20.3779
rfoot -4.79187 0.639111
rtoes 18.2011
lfemur -15.7845 5.58119 -9.5321
ltibia 72.1633
lfoot 2.99422 -8.80778
ltoes 10.8427
